<?xml version="1.0" encoding="UTF-8"?>
<svg width="515px" height="61px" viewBox="0 0 515 61" version="1.1" xmlns="http://www.w3.org/2000/svg" xmlns:xlink="http://www.w3.org/1999/xlink">
    <!-- Generator: Sketch 51.2 (57519) - http://www.bohemiancoding.com/sketch -->
    <title>logo/wordmark</title>
    <desc>Created with Sketch.</desc>
    <defs>
        <linearGradient x1="50%" y1="3.061617e-15%" x2="50%" y2="100%" id="linearGradient-1">
            <stop stop-color="#00FFE1" offset="0%"></stop>
            <stop stop-color="#00CC7E" offset="100%"></stop>
        </linearGradient>
        <linearGradient x1="100%" y1="50%" x2="0%" y2="50%" id="linearGradient-2">
            <stop stop-color="#00FFE1" offset="0%"></stop>
            <stop stop-color="#00CC7E" offset="100%"></stop>
        </linearGradient>
        <linearGradient x1="100%" y1="50%" x2="-1.11022302e-14%" y2="50%" id="linearGradient-3">
            <stop stop-color="#00FFE1" offset="0%"></stop>
            <stop stop-color="#00CC7E" offset="100%"></stop>
        </linearGradient>
    </defs>
    <g id="Website" stroke="none" stroke-width="1" fill="none" fill-rule="evenodd">
        <g id="MSG_website_1.0_768" transform="translate(-127.000000, -754.000000)">
            <g id="content" transform="translate(0.000000, 320.000000)">
                <g transform="translate(-448.000000, 0.000000)" id="words">
                    <g transform="translate(575.000000, 120.000000)">
                        <g id="logo/wordmark" transform="translate(0.000000, 314.000000)">
                            <g id="uppercase">
                                <path d="M0.9765625,0.8515625 L17.1484375,30.5234375 L33.3554688,0.8515625 L33.3554688,59 L26.8164062,59 L26.8164062,32.703125 L26.9921875,25.6367188 L23.265625,32.7734375 L17.1835938,43.8476562 L17.1835938,43.9179688 L17.1484375,43.8828125 L17.1484375,43.8476562 L11.03125,32.7382812 L7.3046875,25.6367188 L7.515625,32.6328125 L7.515625,59 L0.9765625,59 L0.9765625,0.8515625 Z M47.34375,2.99609375 L53.8828125,2.99609375 L53.8828125,59 L47.34375,59 L47.34375,2.99609375 Z M67.8359375,0.8515625 L85.4492188,30.2070312 L89.3164062,37.0273438 L89.140625,30.3125 L89.140625,2.99609375 L95.6445312,2.99609375 L95.6445312,60.1953125 L77.9960938,31.015625 L74.1640625,24.8984375 L74.375,31.015625 L74.375,59 L67.8359375,59 L67.8359375,0.8515625 Z M114.835938,9.18359375 L106.046875,9.18359375 L106.046875,2.99609375 L130.164062,2.99609375 L130.164062,9.18359375 L121.375,9.18359375 L121.375,59 L114.835938,59 L114.835938,9.18359375 Z M147.28125,39.9101562 L135.679688,2.9609375 L142.710938,2.9609375 L150.585938,30.59375 L158.460938,2.9609375 L165.492188,2.9609375 L153.820312,40.15625 L153.820312,59 L147.28125,59 L147.28125,39.9101562 Z M188.6875,50.5976562 C189.835943,51.2773471 191.037103,51.8867161 192.291016,52.4257812 C193.544928,52.9648464 194.921868,53.234375 196.421875,53.234375 C197.335942,53.234375 198.21484,53.10547 199.058594,52.8476562 C199.902348,52.5898425 200.640622,52.1914089 201.273438,51.6523438 C201.906253,51.1132786 202.410154,50.4277385 202.785156,49.5957031 C203.160158,48.7636677 203.347656,47.7734432 203.347656,46.625 C203.347656,45.8515586 203.248048,45.0546916 203.048828,44.234375 C202.849608,43.4140584 202.521487,42.5293016 202.064453,41.5800781 C201.60742,40.6308546 201.009769,39.5937556 200.271484,38.46875 C199.533199,37.3437444 198.613287,36.0898507 197.511719,34.7070312 L192.976562,28.9765625 C191.851557,27.5468679 190.896488,26.1875064 190.111328,24.8984375 C189.326168,23.6093686 188.687502,22.3730528 188.195312,21.1894531 C187.703123,20.0058535 187.345704,18.8691461 187.123047,17.7792969 C186.90039,16.6894477 186.789062,15.6171928 186.789062,14.5625 C186.789062,12.8046787 187.07031,11.1816481 187.632812,9.69335938 C188.195315,8.20507068 189.01562,6.91602107 190.09375,5.82617188 C191.17188,4.73632268 192.478508,3.8867218 194.013672,3.27734375 C195.548836,2.6679657 197.289053,2.36328125 199.234375,2.36328125 C200.781258,2.36328125 202.339836,2.56835732 203.910156,2.97851562 C205.480477,3.38867393 207.015618,4.03905805 208.515625,4.9296875 L205.703125,10.3789062 C204.882808,9.88671629 203.998052,9.45898619 203.048828,9.09570312 C202.099605,8.73242006 201.050787,8.55078125 199.902344,8.55078125 C197.980459,8.55078125 196.445318,9.09569768 195.296875,10.1855469 C194.148432,11.2753961 193.574219,12.8163963 193.574219,14.8085938 C193.574219,15.3476589 193.632812,15.904294 193.75,16.4785156 C193.867188,17.0527372 194.072264,17.6796841 194.365234,18.359375 C194.658205,19.0390659 195.056638,19.7890584 195.560547,20.609375 C196.064456,21.4296916 196.703121,22.3554636 197.476562,23.3867188 L204.050781,32.0351562 C204.894535,33.1601619 205.691402,34.255854 206.441406,35.3222656 C207.19141,36.3886772 207.835935,37.4785101 208.375,38.5917969 C208.914065,39.7050837 209.341795,40.876947 209.658203,42.1074219 C209.974611,43.3378968 210.132812,44.6679616 210.132812,46.0976562 C210.132812,48.2070418 209.792972,50.099601 209.113281,51.7753906 C208.43359,53.4511803 207.484381,54.8749941 206.265625,56.046875 C205.046869,57.2187559 203.599618,58.1152313 201.923828,58.7363281 C200.248038,59.357425 198.414072,59.6679688 196.421875,59.6679688 C194.359365,59.6679688 192.390634,59.3632843 190.515625,58.7539062 C188.640616,58.1445282 187.023444,57.3710984 185.664062,56.4335938 L188.6875,50.5976562 Z M259.730469,2.99609375 L266.269531,2.99609375 L266.269531,42.6171875 C266.269531,44.5625097 266.416014,46.2089776 266.708984,47.5566406 C267.001955,48.9043036 267.435544,49.9941365 268.009766,50.8261719 C268.583987,51.6582073 269.281246,52.2617169 270.101562,52.6367188 C270.921879,53.0117206 271.85937,53.1992188 272.914062,53.1992188 C273.968755,53.1992188 274.906246,53.0117206 275.726562,52.6367188 C276.546879,52.2617169 277.244138,51.6582073 277.818359,50.8261719 C278.392581,49.9941365 278.82617,48.9043036 279.119141,47.5566406 C279.412111,46.2089776 279.558594,44.5625097 279.558594,42.6171875 L279.558594,2.99609375 L286.097656,2.99609375 L286.097656,43.4257812 C286.097656,46.2617329 285.798831,48.6992086 285.201172,50.7382812 C284.603513,52.7773539 283.736334,54.4589778 282.599609,55.7832031 C281.462885,57.1074285 280.080086,58.0859343 278.451172,58.71875 C276.822257,59.3515657 274.976573,59.6679688 272.914062,59.6679688 C270.851552,59.6679688 269.005868,59.3515657 267.376953,58.71875 C265.748039,58.0859343 264.36524,57.1074285 263.228516,55.7832031 C262.091791,54.4589778 261.224612,52.7773539 260.626953,50.7382812 C260.029294,48.6992086 259.730469,46.2617329 259.730469,43.4257812 L259.730469,2.99609375 Z M300.015625,2.99609375 L306.554688,2.99609375 L306.554688,52.8828125 L321.003906,52.8828125 L321.003906,59 L300.015625,59 L300.015625,2.99609375 Z M360.617188,32.703125 L367.15625,32.703125 L367.15625,59.6328125 C363.664045,59.7734382 360.36525,59.2402404 357.259766,58.0332031 C354.154281,56.8261658 351.441418,54.9746219 349.121094,52.4785156 C346.80077,49.9824094 344.960944,46.8476751 343.601562,43.0742188 C342.242181,39.3007624 341.5625,34.9297123 341.5625,29.9609375 C341.5625,25.5546655 342.089838,21.6406421 343.144531,18.21875 C344.199224,14.7968579 345.611319,11.9082149 347.380859,9.55273438 C349.150399,7.19725385 351.195301,5.41016234 353.515625,4.19140625 C355.835949,2.97265016 358.261706,2.36328125 360.792969,2.36328125 C361.894537,2.36328125 362.97851,2.48046758 364.044922,2.71484375 C365.111333,2.94921992 366.242182,3.31249754 367.4375,3.8046875 L364.484375,9.46484375 C364.015623,9.27734281 363.43555,9.1308599 362.744141,9.02539062 C362.052731,8.91992135 361.449221,8.8671875 360.933594,8.8671875 C359.386711,8.8671875 357.863289,9.32421418 356.363281,10.2382812 C354.863274,11.1523483 353.52149,12.4999911 352.337891,14.28125 C351.154291,16.0625089 350.193363,18.2714712 349.455078,20.9082031 C348.716793,23.5449351 348.347656,26.5859203 348.347656,30.03125 C348.347656,33.1015779 348.652341,35.8730345 349.261719,38.3457031 C349.871097,40.8183717 350.714838,42.9746002 351.792969,44.8144531 C352.871099,46.6543061 354.160149,48.171869 355.660156,49.3671875 C357.160164,50.562506 358.812491,51.4179662 360.617188,51.9335938 L360.617188,32.703125 Z M390.882812,1.2734375 L407.160156,59 L400.128906,59 L397.667969,49.6835938 L384.0625,49.6835938 L381.636719,59 L374.605469,59 L390.882812,1.2734375 Z M396.050781,43.4960938 L392.289062,29.046875 L390.847656,22.3671875 L389.476562,29.046875 L385.679688,43.4960938 L396.050781,43.4960938 Z M416.121094,0.8515625 L432.292969,30.5234375 L448.5,0.8515625 L448.5,59 L441.960938,59 L441.960938,32.703125 L442.136719,25.6367188 L438.410156,32.7734375 L432.328125,43.8476562 L432.328125,43.9179688 L432.292969,43.8828125 L432.292969,43.8476562 L426.175781,32.7382812 L422.449219,25.6367188 L422.660156,32.6328125 L422.660156,59 L416.121094,59 L416.121094,0.8515625 Z M462.488281,2.99609375 L481.332031,2.99609375 L481.332031,9.18359375 L469.027344,9.18359375 L469.027344,30.6992188 L479.574219,30.6992188 L479.574219,36.8867188 L469.027344,36.8867188 L469.027344,52.8125 L481.332031,52.8125 L481.332031,59 L462.488281,59 L462.488281,2.99609375 Z M493.351562,50.5976562 C494.500006,51.2773471 495.701166,51.8867161 496.955078,52.4257812 C498.208991,52.9648464 499.58593,53.234375 501.085938,53.234375 C502.000005,53.234375 502.878902,53.10547 503.722656,52.8476562 C504.56641,52.5898425 505.304684,52.1914089 505.9375,51.6523438 C506.570316,51.1132786 507.074217,50.4277385 507.449219,49.5957031 C507.824221,48.7636677 508.011719,47.7734432 508.011719,46.625 C508.011719,45.8515586 507.91211,45.0546916 507.712891,44.234375 C507.513671,43.4140584 507.185549,42.5293016 506.728516,41.5800781 C506.271482,40.6308546 505.673832,39.5937556 504.935547,38.46875 C504.197262,37.3437444 503.277349,36.0898507 502.175781,34.7070312 L497.640625,28.9765625 C496.515619,27.5468679 495.560551,26.1875064 494.775391,24.8984375 C493.99023,23.6093686 493.351565,22.3730528 492.859375,21.1894531 C492.367185,20.0058535 492.009767,18.8691461 491.787109,17.7792969 C491.564452,16.6894477 491.453125,15.6171928 491.453125,14.5625 C491.453125,12.8046787 491.734372,11.1816481 492.296875,9.69335938 C492.859378,8.20507068 493.679682,6.91602107 494.757812,5.82617188 C495.835943,4.73632268 497.14257,3.8867218 498.677734,3.27734375 C500.212898,2.6679657 501.953115,2.36328125 503.898438,2.36328125 C505.44532,2.36328125 507.003898,2.56835732 508.574219,2.97851562 C510.144539,3.38867393 511.67968,4.03905805 513.179688,4.9296875 L510.367188,10.3789062 C509.546871,9.88671629 508.662114,9.45898619 507.712891,9.09570312 C506.763667,8.73242006 505.714849,8.55078125 504.566406,8.55078125 C502.644522,8.55078125 501.109381,9.09569768 499.960938,10.1855469 C498.812494,11.2753961 498.238281,12.8163963 498.238281,14.8085938 C498.238281,15.3476589 498.296874,15.904294 498.414062,16.4785156 C498.531251,17.0527372 498.736327,17.6796841 499.029297,18.359375 C499.322267,19.0390659 499.720701,19.7890584 500.224609,20.609375 C500.728518,21.4296916 501.367184,22.3554636 502.140625,23.3867188 L508.714844,32.0351562 C509.558598,33.1601619 510.355465,34.255854 511.105469,35.3222656 C511.855473,36.3886772 512.499997,37.4785101 513.039062,38.5917969 C513.578128,39.7050837 514.005858,40.876947 514.322266,42.1074219 C514.638673,43.3378968 514.796875,44.6679616 514.796875,46.0976562 C514.796875,48.2070418 514.457035,50.099601 513.777344,51.7753906 C513.097653,53.4511803 512.148444,54.8749941 510.929688,56.046875 C509.710931,57.2187559 508.26368,58.1152313 506.587891,58.7363281 C504.912101,59.357425 503.078135,59.6679688 501.085938,59.6679688 C499.023427,59.6679688 497.054697,59.3632843 495.179688,58.7539062 C493.304678,58.1445282 491.687507,57.3710984 490.328125,56.4335938 L493.351562,50.5976562 Z" id="Minty-Soul-Games" fill="url(#linearGradient-1)"></path>
                                <g id="O" transform="translate(218.000000, 2.000000)" stroke-width="6">
                                    <path d="M39.7986035,29.01 C31.2174582,21.8109648 21.2667097,18.235 9.83092615,18.235 C-4.37152835,18.235 -10.3506131,21.8458845 -9.98254427,28.852625 L-9.97427726,29.01 L-9.98254427,29.167375 C-10.3506131,36.1741155 -4.37152835,39.785 9.83092615,39.785 C21.2667097,39.785 31.2174582,36.2090352 39.7986035,29.01 Z" id="leaf-copy-3" stroke="url(#linearGradient-2)" transform="translate(15.650000, 29.010000) rotate(-90.000000) translate(-15.650000, -29.010000) "></path>
                                    <path d="M-9.1264691,33.861345 C-6.84521193,37.5362218 -0.775635027,39.570445 9.61637118,39.570445 C21.0521547,39.570445 31.0029032,35.9944802 39.5840485,28.795445 C31.0029032,21.5964099 21.0521547,18.020445 9.61637118,18.020445 C-0.775635027,18.020445 -6.84521193,20.0546683 -9.1264691,23.729545 C-8.01187721,24.6403843 -6.91947759,25.6037592 -5.84929486,26.6195083 L-3.5567504,28.795445 L-5.84929486,30.9713817 C-6.91947759,31.9871308 -8.01187721,32.9505058 -9.1264691,33.861345 Z" id="leaf-copy" stroke="url(#linearGradient-3)" transform="translate(15.650000, 28.795445) rotate(-90.000000) translate(-15.650000, -28.795445) "></path>
                                </g>
                            </g>
                        </g>
                    </g>
                </g>
            </g>
        </g>
    </g>
</svg>